<?xml version="1.0" standalone="no"?>
<!DOCTYPE svg PUBLIC "-//W3C//DTD SVG 20010904//EN"
 "http://www.w3.org/TR/2001/REC-SVG-20010904/DTD/svg10.dtd">
<svg version="1.0" xmlns="http://www.w3.org/2000/svg"
 width="764.000000pt" height="719.000000pt" viewBox="0 0 764.000000 719.000000"
 preserveAspectRatio="xMidYMid meet">

<g transform="translate(0.000000,719.000000) scale(0.100000,-0.100000)"
fill="#000000" stroke="none">
<path d="M0 3595 l0 -3595 3820 0 3820 0 0 3595 0 3595 -3820 0 -3820 0 0
-3595z m6319 1115 c28 -95 3 -189 -69 -260 -58 -57 -128 -89 -232 -106 -95
-15 -150 -34 -182 -62 -28 -25 -55 -91 -62 -155 -4 -31 -10 -57 -13 -57 -14 0
-60 84 -71 130 -15 64 0 136 40 195 56 82 121 117 270 145 175 33 223 79 237
224 l6 65 32 -41 c18 -22 38 -57 44 -78z m373 -196 c53 -121 -34 -238 -196
-264 -113 -18 -134 -36 -160 -135 l-13 -50 -21 35 c-26 41 -30 126 -8 168 31
60 80 88 208 116 48 11 85 25 101 40 24 22 47 80 47 119 0 32 21 17 42 -29z
m-895 -503 c104 -49 102 -38 34 -327 -52 -218 -92 -348 -169 -552 -62 -161
-177 -337 -307 -468 l-70 -71 110 -6 c165 -7 280 -59 320 -143 24 -50 35 -164
24 -239 -13 -83 -85 -225 -153 -301 -98 -109 -280 -216 -424 -250 -94 -23
-271 -23 -343 -1 -101 30 -198 139 -235 262 -14 45 -18 91 -18 180 1 114 12
169 49 258 6 15 1 17 -36 17 -100 0 -410 -56 -544 -98 -105 -33 -340 -130
-487 -201 -388 -186 -666 -257 -902 -231 -156 18 -258 83 -310 199 -30 68 -43
170 -27 227 18 67 29 71 113 36 109 -45 187 -56 373 -49 225 8 346 31 888 172
268 69 487 110 705 131 186 19 289 11 362 -26 36 -19 40 -24 40 -60 0 -21 -11
-74 -24 -117 -31 -100 -37 -149 -27 -196 14 -61 51 -105 111 -135 52 -25 63
-27 195 -27 129 0 145 2 203 26 98 42 172 89 232 149 91 91 133 166 110 200
-15 24 -234 21 -325 -4 -152 -41 -223 -87 -251 -164 -9 -26 -21 -51 -25 -56
-13 -14 -120 46 -140 78 -62 103 -12 227 119 292 31 16 59 30 61 31 2 1 -6 11
-19 21 -30 24 -21 52 28 85 141 93 289 443 442 1046 39 150 70 274 70 276 0 1
9 12 20 25 41 47 140 52 227 11z"/>
<path d="M3377 2115 c-44 -23 -221 -73 -321 -92 -135 -24 -337 -22 -451 6 -49
12 -116 35 -147 51 -32 15 -58 25 -58 20 0 -12 83 -89 120 -111 125 -77 362
-69 630 21 80 27 265 104 279 116 12 10 -28 2 -52 -11z"/>
<path d="M5328 1844 c-127 -57 -187 -69 -333 -69 -118 1 -136 3 -195 28 -35
14 -65 25 -67 23 -6 -6 80 -87 109 -102 122 -63 325 -19 525 113 82 55 73 57
-39 7z"/>
</g>
</svg>
