<?xml version="1.0" standalone="no"?>
<!DOCTYPE svg PUBLIC "-//W3C//DTD SVG 20010904//EN"
 "http://www.w3.org/TR/2001/REC-SVG-20010904/DTD/svg10.dtd">
<svg version="1.0" xmlns="http://www.w3.org/2000/svg"
 width="764.000000pt" height="719.000000pt" viewBox="0 0 764.000000 719.000000"
 preserveAspectRatio="xMidYMid meet">

<g transform="translate(0.000000,719.000000) scale(0.100000,-0.100000)"
fill="#000000" stroke="none">
<path d="M2068 5540 c-38 -3 -70 -9 -73 -12 -3 -2 2 -69 10 -147 8 -79 15
-152 15 -162 0 -16 8 -19 46 -19 l47 0 -7 70 -6 70 27 0 c56 0 74 11 71 39 -3
24 -7 26 -55 29 -51 3 -53 4 -53 31 0 25 5 29 38 35 20 3 49 6 65 6 24 0 27 4
27 35 0 35 0 35 -42 34 -24 -1 -73 -5 -110 -9z"/>
<path d="M2310 5544 c0 -5 -7 -78 -16 -163 -9 -84 -12 -157 -7 -161 4 -5 52
-11 106 -15 79 -6 97 -5 97 6 0 8 3 24 6 37 6 19 3 22 -24 22 -16 0 -44 3 -61
6 -26 6 -31 11 -31 36 l0 30 54 -4 c54 -4 54 -4 59 26 3 17 4 32 2 34 -1 1
-26 5 -54 9 -49 6 -52 8 -49 32 3 25 5 26 66 23 l62 -3 0 35 c0 32 -2 35 -37
40 -88 13 -173 18 -173 10z"/>
<path d="M1724 5464 l-41 -15 -7 -106 c-8 -135 -8 -253 0 -253 4 0 24 5 45 12
35 10 39 15 39 43 0 29 4 32 56 49 55 17 56 17 78 -3 21 -20 25 -20 62 -7 21
8 38 19 37 25 -4 15 -213 271 -221 270 -4 0 -25 -7 -48 -15z m74 -148 l32 -44
-32 -11 c-17 -6 -33 -11 -34 -11 -2 0 -4 25 -4 55 0 30 1 55 3 55 2 0 18 -20
35 -44z"/>
<path d="M2736 5472 c-22 -35 -124 -298 -118 -303 4 -3 38 -19 75 -34 159 -66
267 -13 275 136 4 65 3 68 -32 107 -33 36 -54 48 -182 99 -7 2 -15 0 -18 -5z
m113 -128 c22 -18 31 -35 31 -55 0 -37 -24 -84 -45 -93 -27 -10 -70 -7 -89 7
-17 12 -16 17 14 90 18 42 39 77 46 77 7 0 26 -12 43 -26z"/>
<path d="M3017 5174 c-53 -75 -95 -140 -92 -144 3 -5 42 -35 87 -66 l81 -57
18 24 c25 32 25 34 -18 65 -21 16 -42 31 -47 35 -5 5 -2 19 8 34 l17 26 44
-32 44 -32 20 24 c11 13 20 27 21 30 0 4 -18 18 -40 33 -44 29 -46 34 -26 61
13 18 16 17 63 -18 l50 -36 22 30 c13 17 21 32 19 33 -25 17 -120 85 -143 103
l-31 22 -97 -135z"/>
<path d="M1365 5288 c-70 -38 -113 -116 -100 -181 10 -45 50 -104 88 -127 68
-42 186 -14 227 53 25 41 34 89 24 121 l-9 25 -33 -21 c-18 -11 -39 -35 -47
-53 -7 -19 -25 -41 -40 -51 -24 -16 -29 -16 -59 -1 -87 41 -75 157 16 157 36
0 108 35 108 52 0 30 -132 50 -175 26z"/>
<path d="M965 4914 c-16 -21 -24 -39 -18 -43 5 -3 64 -50 130 -103 66 -54 122
-98 125 -98 5 0 98 115 112 138 8 14 -19 52 -37 52 -5 0 -24 -17 -42 -37 l-32
-37 -101 82 c-55 45 -103 82 -105 82 -3 0 -17 -16 -32 -36z"/>
<path d="M2100 4831 c-109 -25 -157 -42 -250 -92 -284 -153 -456 -386 -526
-711 -25 -111 -25 -390 -1 -495 l17 -73 -49 -122 c-65 -165 -98 -269 -111
-351 -10 -66 -10 -68 17 -103 35 -44 151 -102 220 -111 51 -5 52 -5 72 28 32
52 60 131 97 279 88 353 255 765 420 1041 65 107 74 135 52 157 -24 24 -154 9
-223 -24 -35 -17 -127 -130 -214 -263 -33 -51 -61 -89 -61 -83 0 23 65 192
103 267 60 120 111 191 206 285 139 138 311 213 491 213 103 0 158 -21 212
-80 61 -68 72 -179 32 -323 -51 -180 -246 -421 -458 -565 -85 -58 -85 -58
-143 -51 -110 11 -193 -32 -193 -101 0 -50 39 -66 174 -69 103 -2 109 -3 138
-31 44 -41 75 -100 92 -173 22 -91 20 -153 -8 -264 -61 -239 -221 -450 -411
-540 -99 -48 -160 -59 -274 -54 -134 7 -198 33 -277 112 -71 71 -99 133 -110
245 -8 81 -17 91 -81 91 -48 0 -138 -43 -160 -76 -12 -19 -15 -42 -11 -103 8
-131 88 -277 209 -377 80 -67 216 -130 324 -150 109 -20 370 -15 480 10 252
57 482 186 605 340 141 176 195 333 188 548 -4 111 -6 120 -42 194 -54 109
-146 199 -256 252 l-82 39 88 27 c188 59 361 170 467 301 131 163 184 379 142
578 -19 89 -57 159 -127 228 -65 66 -144 107 -268 139 -123 32 -389 38 -510
11z"/>
<path d="M836 4715 c-25 -47 -47 -90 -48 -96 -4 -13 284 -171 293 -161 3 4 27
46 53 94 l47 87 -32 16 c-35 19 -34 19 -70 -47 -22 -43 -20 -42 -53 -27 l-25
12 25 49 c14 28 24 51 22 53 -15 13 -50 25 -58 20 -6 -4 -19 -24 -30 -46 -19
-36 -23 -38 -43 -28 -12 7 -24 13 -26 15 -2 1 11 27 28 57 l30 54 -34 16 -34
16 -45 -84z"/>
<path d="M4230 4020 c-27 -27 -171 -321 -229 -466 -22 -56 -54 -162 -72 -235
-36 -148 -29 -138 -153 -222 -102 -70 -261 -145 -341 -162 -145 -30 -235 25
-235 144 l0 40 58 11 c268 53 426 171 544 408 35 70 42 94 46 161 6 107 -16
156 -91 197 -46 26 -61 29 -137 28 -95 0 -162 -23 -262 -86 -297 -191 -542
-613 -512 -883 18 -166 79 -247 222 -296 135 -47 270 -32 432 46 115 57 183
103 297 203 l91 81 12 -28 c30 -74 152 -143 300 -169 120 -21 121 -20 131 129
18 246 101 415 279 568 88 76 110 80 76 14 -66 -132 -115 -344 -122 -533 -6
-173 -3 -183 79 -224 49 -24 74 -30 156 -34 82 -4 110 -1 174 18 90 27 94 36
48 109 -46 73 -56 116 -55 231 3 176 34 290 154 555 38 83 74 169 80 192 18
59 6 107 -37 149 -35 35 -38 36 -93 31 -63 -5 -184 -57 -281 -120 -129 -83
-317 -248 -399 -351 -24 -30 -45 -54 -47 -52 -6 6 59 153 112 254 35 65 55
115 55 136 0 73 -105 160 -208 173 -43 5 -53 2 -72 -17z m-714 -327 c7 -10 14
-29 14 -44 0 -41 -74 -180 -130 -242 -45 -50 -166 -147 -184 -147 -14 0 -3 60
23 128 41 103 106 208 167 270 56 55 87 65 110 35z"/>
<path d="M6192 4034 c-38 -17 -200 -337 -281 -558 -80 -214 -102 -315 -108
-487 -7 -192 -2 -207 80 -245 57 -26 72 -29 177 -29 120 0 215 21 227 51 3 8
-9 35 -26 62 -47 74 -65 158 -58 282 9 169 61 330 193 596 61 122 74 156 68
179 -9 35 -71 98 -124 125 -42 21 -124 34 -148 24z"/>
<path d="M6375 2664 c-108 -22 -138 -30 -188 -56 -106 -53 -181 -140 -213
-245 -8 -25 -19 -95 -24 -155 -12 -127 -45 -241 -103 -353 -53 -102 -182 -235
-275 -284 -172 -90 -394 -129 -572 -101 -346 55 -586 304 -607 629 -7 113 -19
131 -83 131 -37 0 -52 -4 -58 -17 -31 -61 -18 -276 24 -401 66 -196 214 -352
436 -457 146 -69 242 -89 428 -88 120 0 178 5 257 22 510 108 776 402 853 946
20 139 74 197 182 197 59 -1 133 -34 162 -74 44 -62 27 -199 -36 -294 -29 -42
-56 -67 -168 -153 -22 -17 -23 -21 -12 -46 12 -26 15 -27 67 -22 120 12 250
104 329 230 111 180 113 338 5 461 -81 92 -276 155 -404 130z"/>
</g>
</svg>
